# xmcd
#
# Track frame offsets:
#	150
#	14578
#	25302
#	46724
#	59689
#	73596
#	84175
#	98405
#	108343
#	121897
#	133319
#	146377
#	161781
#	173906
#	187379
#	199137
#	212078
#	221584
#
# Disc length: 3101 seconds
#
# Revision: 1
# Processed by: cddbd v1.5.2PL0 Copyright (c) Steve Scherf et al.
# Submitted via: audiograbber 1.83.01
#
DISCID=0a0c1b12
DTITLE=Best Of Country Songs - CD 7
DYEAR=2011
DGENRE=Country
TTITLE0=Freddy Fender - Wasted Days And Wasted Nights
TTITLE1=Conway Twitty - It's Only Make Believe
TTITLE2=Olivia Newton John - Banks Of The Ohio
TTITLE3=Faron Young - Four In The Morning
TTITLE4=Willie Nelson - Home Is Where You're Happy
TTITLE5=Ferlin Husky - Wings Of A Dove
TTITLE6=George Jones - A Good Year For The Roses
TTITLE7=Dolly Parton - Release Me
TTITLE8=Don Williams - Ruby Tuesday
TTITLE9=Waylon Jennings - Sally Was A Good Old Girl
TTITLE10=Charlie Rich - The Most Beautiful Girl
TTITLE11=Boxcar Willie - Box Car Blues
TTITLE12=Eddy Arnold - Make The World Go Away
TTITLE13=Johnny Tillotson - Send Me The Pillow That You Dream On
TTITLE14=Don Gibson - Sea Of Heartbreak
TTITLE15=Patsy Cline - I Fall To Pieces
TTITLE16=Jim Reeves - I Won't Forget You
TTITLE17=Roger Miller - King Of The Road
EXTD=
EXTT0=
EXTT1=
EXTT2=
EXTT3=
EXTT4=
EXTT5=
EXTT6=
EXTT7=
EXTT8=
EXTT9=
EXTT10=
EXTT11=
EXTT12=
EXTT13=
EXTT14=
EXTT15=
EXTT16=
EXTT17=
PLAYORDER=
